<svg width="12" height="14" viewBox="0 0 12 14" xmlns="http://www.w3.org/2000/svg">
<path d="M9.91256 7.27015C9.89598 5.54303 11.4215 4.70279 11.4913 4.66367C10.6273 3.48315 9.28821 3.32187 8.81764 3.309C7.69292 3.19807 6.60194 3.93971 6.02901 3.93971C5.44463 3.93971 4.56236 3.31974 3.61147 3.33795C2.38782 3.3556 1.24314 4.01957 0.615271 5.0506C-0.680348 7.15282 0.28593 10.2421 1.52734 11.9413C2.14825 12.7741 2.87391 13.7028 3.82361 13.6701C4.75276 13.6347 5.09982 13.1154 6.2211 13.1154C7.33204 13.1154 7.65804 13.6701 8.6266 13.6492C9.62387 13.6347 10.2516 12.8132 10.8509 11.9735C11.5685 11.0202 11.8566 10.0803 11.8681 10.032C11.8452 10.0246 9.93201 9.33968 9.91256 7.27015ZM8.08283 2.19116C8.58252 1.60549 8.92449 0.808634 8.82959 0C8.10623 0.0299956 7.20171 0.468872 6.68074 1.04172C6.21987 1.54654 5.80817 2.37391 5.91452 3.15199C6.72711 3.2088 7.56135 2.76776 8.08283 2.19116Z"/>
</svg>
