<svg width="21" height="17" viewBox="0 0 21 17" fill="none" xmlns="http://www.w3.org/2000/svg">
<path d="M14.2878 13.4739L14.1921 13.2348L14.3312 13.0179C15.0958 11.8266 15.5 10.4436 15.5 9C15.5 4.86514 12.1349 1.5 8 1.5C3.86514 1.5 0.5 4.86514 0.5 9C0.5 13.1349 3.86514 16.5 8 16.5C9.44357 16.5 10.8266 16.0958 12.0179 15.3312L12.2348 15.192L12.474 15.2879C13.083 15.5319 13.9882 15.8395 14.7506 16.0888C14.9126 16.1417 15.0675 16.1919 15.211 16.2379C15.16 16.072 15.1039 15.8912 15.0448 15.7027C14.7957 14.9088 14.498 13.9987 14.2878 13.4739Z" stroke="#001F7A" stroke-linecap="round"/>
<line x1="18.5" y1="-2.18557e-08" x2="18.5" y2="5" stroke="#001F7A"/>
<line x1="21" y1="2.5" x2="16" y2="2.5" stroke="#001F7A"/>
</svg>
