<svg width="15" height="14" viewBox="0 0 15 14" fill="none" xmlns="http://www.w3.org/2000/svg">
    <path d="M13.2329 10.9379L13.1371 10.6988L13.2763 10.4819C13.9387 9.44974 14.2891 8.25132 14.2891 7C14.2891 3.41652 11.3725 0.5 7.78906 0.5C4.20558 0.5 1.28906 3.41652 1.28906 7C1.28906 10.5835 4.20558 13.5 7.78906 13.5C9.04038 13.5 10.2388 13.1497 11.271 12.4872L11.4878 12.348L11.727 12.4439C12.2578 12.6565 13.0482 12.9251 13.7153 13.1433C13.8149 13.1758 13.9114 13.2072 14.0036 13.2369C13.9689 13.1245 13.932 13.0059 13.8936 12.8836C13.6755 12.1886 13.4158 11.3945 13.2329 10.9379Z" stroke-linecap="round"/>
</svg>
