<svg width="16" height="16" viewBox="0 0 16 16" fill="none" xmlns="http://www.w3.org/2000/svg">
<path d="M14.2878 12.4739L14.1921 12.2348L14.3312 12.0179C15.0958 10.8266 15.5 9.44357 15.5 8C15.5 3.86514 12.1349 0.5 8 0.5C3.86514 0.5 0.499999 3.86514 0.499999 8C0.499999 12.1349 3.86514 15.5 8 15.5C9.44357 15.5 10.8266 15.0958 12.0179 14.3312L12.2348 14.192L12.474 14.2879C13.083 14.5319 13.9882 14.8395 14.7506 15.0888C14.9126 15.1417 15.0675 15.1919 15.211 15.2379C15.16 15.072 15.1039 14.8912 15.0448 14.7027C14.7957 13.9088 14.498 12.9987 14.2878 12.4739Z" stroke="#001F7A" stroke-linecap="round"/>
</svg>
