<svg width="16" height="16" viewBox="0 0 16 16" fill="none" xmlns="http://www.w3.org/2000/svg">
<mask id="path-1-inside-1_1052_33084" fill="white">
<path d="M12 0H15.9995V3.99951"/>
</mask>
<path d="M12 -1H11V1H12V-1ZM15.9995 0H16.9995C16.9995 -0.552285 16.5518 -1 15.9995 -1V0ZM14.9995 3.99951V4.99951H16.9995V3.99951H14.9995ZM12 1H15.9995V-1H12V1ZM14.9995 0V3.99951H16.9995V0H14.9995Z" fill="#001F7A" mask="url(#path-1-inside-1_1052_33084)"/>
<path d="M11.2031 4.79931L15.2026 0.799805" stroke="#001F7A" stroke-linecap="square" stroke-linejoin="round"/>
<mask id="path-4-inside-2_1052_33084" fill="white">
<path d="M16 11.9985L16 15.998L12.0005 15.998"/>
</mask>
<path d="M17 11.9985L17 10.9985L15 10.9985L15 11.9985L17 11.9985ZM16 15.998L16 16.998C16.5523 16.998 17 16.5503 17 15.998L16 15.998ZM12.0005 14.998L11.0005 14.998L11.0005 16.998L12.0005 16.998L12.0005 14.998ZM15 11.9985L15 15.998L17 15.998L17 11.9985L15 11.9985ZM16 14.998L12.0005 14.998L12.0005 16.998L16 16.998L16 14.998Z" fill="#001F7A" mask="url(#path-4-inside-2_1052_33084)"/>
<path d="M11.2036 11.1987L15.2031 15.1982" stroke="#001F7A" stroke-linecap="square" stroke-linejoin="round"/>
<mask id="path-7-inside-3_1052_33084" fill="white">
<path d="M4.00391 15.998L0.00439692 15.998L0.00439727 11.9985"/>
</mask>
<path d="M4.00391 16.998L5.00391 16.998L5.00391 14.998L4.00391 14.998L4.00391 16.998ZM0.00439692 15.998L-0.995603 15.998C-0.995603 16.5503 -0.547888 16.998 0.00439683 16.998L0.00439692 15.998ZM1.0044 11.9985L1.0044 10.9985L-0.995603 10.9985L-0.995603 11.9985L1.0044 11.9985ZM4.00391 14.998L0.004397 14.998L0.00439683 16.998L4.00391 16.998L4.00391 14.998ZM1.0044 15.998L1.0044 11.9985L-0.995603 11.9985L-0.995603 15.998L1.0044 15.998Z" fill="#001F7A" mask="url(#path-7-inside-3_1052_33084)"/>
<path d="M4.80078 11.1987L0.801272 15.1982" stroke="#001F7A" stroke-linecap="square" stroke-linejoin="round"/>
<mask id="path-10-inside-4_1052_33084" fill="white">
<path d="M0 3.99902L-1.74824e-07 -0.000485897L3.99951 -0.000486072"/>
</mask>
<path d="M-1 3.99902L-1 4.99902L1 4.99902L1 3.99902L-1 3.99902ZM-1.74824e-07 -0.000485897L-2.18536e-07 -1.00049C-0.552285 -1.00049 -1 -0.552771 -1 -0.000485853L-1.74824e-07 -0.000485897ZM3.99951 0.999514L4.99951 0.999514L4.99951 -1.00049L3.99951 -1.00049L3.99951 0.999514ZM1 3.99902L1 -0.000485941L-1 -0.000485853L-1 3.99902L1 3.99902ZM-1.31113e-07 0.999514L3.99951 0.999514L3.99951 -1.00049L-2.18536e-07 -1.00049L-1.31113e-07 0.999514Z" fill="#001F7A" mask="url(#path-10-inside-4_1052_33084)"/>
<path d="M4.79638 4.79932L0.796875 0.799807" stroke="#001F7A" stroke-linecap="square" stroke-linejoin="round"/>
</svg>
