<svg width="12" height="14" viewBox="0 0 12 14" xmlns="http://www.w3.org/2000/svg">
<path d="M1.80985 0.719953C1.45983 0.518847 1.04266 0.500864 0.678828 0.668284L6.77899 6.50289L8.77355 4.59036L1.80985 0.719953ZM0.118357 1.20828C0.0413984 1.3638 0 1.53679 0 1.71485V12.3876C0 12.5665 0.0416638 12.7369 0.119419 12.8891L6.2172 7.04162L0.118357 1.20828ZM6.77982 7.57959L0.68947 13.42C0.851083 13.4915 1.02305 13.5226 1.19474 13.5226C1.40678 13.5226 1.61828 13.4742 1.80988 13.3643L8.7749 9.48807L6.77982 7.57959ZM11.4257 6.06446C11.4233 6.06294 11.4207 6.06142 11.4183 6.06015L9.48478 4.98548L7.34135 7.04086L9.48611 9.0922C9.48611 9.0922 11.4233 8.01423 11.4257 8.01296C11.7853 7.80451 12 7.44029 12 7.03858C12 6.63688 11.7853 6.27266 11.4257 6.06446Z"/>
</svg>
