<svg width="24" height="22" viewBox="0 0 24 22" fill="none" xmlns="http://www.w3.org/2000/svg">
<path d="M17.5234 1C16.3025 1 15.1831 1.38956 14.1965 2.15788C13.2505 2.89447 12.6208 3.83265 12.25 4.51487C11.8792 3.83261 11.2495 2.89447 10.3035 2.15788C9.31687 1.38956 8.1975 1 6.97656 1C3.56939 1 1 3.80606 1 7.52717C1 11.5473 4.2055 14.2977 9.05821 18.4616C9.88227 19.1687 10.8163 19.9702 11.7872 20.825C11.9151 20.9379 12.0795 21 12.25 21C12.4205 21 12.5849 20.9379 12.7128 20.8251C13.6838 19.9701 14.6178 19.1687 15.4423 18.4612C20.2945 14.2977 23.5 11.5473 23.5 7.52717C23.5 3.80606 20.9306 1 17.5234 1Z" stroke-linecap="round"/>
</svg>
