<svg width="25" height="22" viewBox="0 0 25 22" xmlns="http://www.w3.org/2000/svg">
    <path d="M17.7734 1C16.5525 1 15.4331 1.38956 14.4465 2.15788C13.5005 2.89447 12.8708 3.83265 12.5 4.51487C12.1292 3.83261 11.4995 2.89447 10.5535 2.15788C9.56687 1.38956 8.4475 1 7.22656 1C3.81939 1 1.25 3.80606 1.25 7.52717C1.25 11.5473 4.4555 14.2977 9.30821 18.4616C10.1323 19.1687 11.0663 19.9702 12.0372 20.825C12.1651 20.9379 12.3295 21 12.5 21C12.6705 21 12.8349 20.9379 12.9628 20.8251C13.9338 19.9701 14.8678 19.1687 15.6923 18.4612C20.5445 14.2977 23.75 11.5473 23.75 7.52717C23.75 3.80606 21.1806 1 17.7734 1Z" stroke-linecap="round"/>
</svg>
