<svg width="14" height="17" viewBox="0 0 14 17" fill="none" xmlns="http://www.w3.org/2000/svg">
    <circle cx="7" cy="7" r="1.5"/>
    <path d="M7 15L6.75128 15.4337L7 15.5764L7.24872 15.4337L7 15ZM7 15C7.24872 15.4337 7.24888 15.4337 7.24905 15.4336L7.24952 15.4333L7.25087 15.4325L7.2552 15.43L7.27025 15.4212C7.28307 15.4137 7.30142 15.4028 7.32494 15.3887C7.37196 15.3605 7.43966 15.3191 7.52508 15.2651C7.69585 15.157 7.93782 14.9982 8.22728 14.7924C8.80531 14.3813 9.57733 13.7793 10.3512 13.0157C11.8838 11.5034 13.5 9.28129 13.5 6.6C13.5 3.19913 10.5568 0.5 7 0.5C3.4432 0.5 0.5 3.19913 0.5 6.6C0.5 9.28129 2.11617 11.5034 3.64882 13.0157C4.42267 13.7793 5.19469 14.3813 5.77272 14.7924C6.06218 14.9982 6.30415 15.157 6.47492 15.2651C6.56034 15.3191 6.62804 15.3605 6.67506 15.3887C6.69858 15.4028 6.71693 15.4137 6.72975 15.4212L6.7448 15.43L6.74913 15.4325L6.75048 15.4333L6.75095 15.4336C6.75112 15.4337 6.75128 15.4337 7 15Z"/>
</svg>
