<svg width="12" height="14" viewBox="0 0 12 14" fill="none" xmlns="http://www.w3.org/2000/svg">
<path d="M10.5998 10.9019L10.5041 10.6628L10.6432 10.4459C11.2035 9.57287 11.5 8.55907 11.5 7.5C11.5 4.46789 9.03211 2 6 2C2.96789 2 0.5 4.46789 0.5 7.5C0.5 10.5321 2.96789 13 6 13C7.05907 13 8.07287 12.7035 8.94594 12.1432L9.16279 12.004L9.40197 12.0999C9.85456 12.2812 10.53 12.5108 11.1018 12.6978C11.141 12.7106 11.1797 12.7232 11.2178 12.7355C11.2004 12.6797 11.1826 12.6226 11.1643 12.5644C10.9773 11.9685 10.7554 11.2904 10.5998 10.9019Z" stroke="#001F7A" stroke-linecap="round"/>
</svg>
