<svg xmlns="http://www.w3.org/2000/svg" viewBox="0 0 489.493 489.493"><path d="M485.322 117.705c12.204-12.238-3.274-47.577-34.636-78.93-30.99-30.99-65.76-46.396-78.401-34.941l-.246-.236-173.715 156.02c-32.117-27.993-80.684-27.038-111.278 3.534a27.516 27.516 0 0 0-8.051 19.437 27.48 27.48 0 0 0 8.051 19.431l78.808 78.801L3.902 463.627c-5.148 5.799-5.262 14.655.015 20.601 5.689 6.403 15.497 6.992 21.916 1.294l182.575-162.137 7.84 7.829 40.601 40.603 30.336 30.329a27.48 27.48 0 0 0 19.424 8.039 27.446 27.446 0 0 0 19.419-8.056c30.561-30.573 31.524-79.158 3.539-111.27L484.771 118.03c.156-.138.406-.169.551-.325z"/></svg>
