<svg width="17" height="16" viewBox="0 0 17 16" fill="none" xmlns="http://www.w3.org/2000/svg">
    <path d="M8.28906 9.5C9.11749 9.5 9.78906 8.82843 9.78906 8C9.78906 7.17157 9.11749 6.5 8.28906 6.5C7.46064 6.5 6.78906 7.17157 6.78906 8C6.78906 8.82843 7.46064 9.5 8.28906 9.5Z" stroke-linecap="round" stroke-linejoin="round"/>
    <path d="M13.2934 4.65393C13.464 4.89942 13.6156 5.15713 13.7468 5.42488L15.6176 6.44269C15.8454 7.46837 15.8462 8.53002 15.6199 9.55602L13.748 10.5744C13.6164 10.8419 13.4644 11.0994 13.2934 11.3446L13.3294 13.4414C12.537 14.1476 11.5993 14.6791 10.5795 15L8.74366 13.9205C8.44143 13.9425 8.13793 13.9423 7.83573 13.9198L6.00093 14.9987C4.98064 14.6793 4.04212 14.1491 3.24867 13.444L3.2847 11.3461C3.1141 11.1006 2.96255 10.8429 2.83136 10.5751L0.960546 9.55731C0.732678 8.53163 0.731895 7.46999 0.958252 6.44399L2.8301 5.42561C2.96173 5.15806 3.11369 4.90059 3.28469 4.65536L3.24868 2.55861C4.04109 1.85237 4.97883 1.32088 5.99864 1L7.83446 2.07954C8.13669 2.05749 8.44019 2.05772 8.74239 2.08024L10.5772 1.0013C11.5975 1.32074 12.536 1.85089 13.3295 2.55601L13.2934 4.65393Z" stroke-linecap="round" stroke-linejoin="round"/>
</svg>
