<svg width="21" height="25" viewBox="0 0 21 25" fill="none" xmlns="http://www.w3.org/2000/svg">
<path d="M9.07107 20.3848L10.4853 21.7991L11.8995 20.3848L16.1421 16.1422C19.2663 13.018 19.2663 7.95269 16.1421 4.8285C13.0179 1.7043 7.95262 1.7043 4.82843 4.8285C1.70423 7.95269 1.70423 13.018 4.82843 16.1422L9.07107 20.3848Z" fill="white" stroke="white" stroke-width="4"/>
<path d="M6.59619 14.3744C4.44831 12.2266 4.44831 8.74415 6.59619 6.59626C8.74408 4.44838 12.2265 4.44838 14.3744 6.59626C16.5223 8.74415 16.5223 12.2266 14.3744 14.3744L10.4853 18.2635L6.59619 14.3744Z" stroke="#001F7A"/>
<path d="M11.5 10.9854C11.5 11.5376 11.0523 11.9854 10.5 11.9854C9.94772 11.9854 9.5 11.5376 9.5 10.9854C9.5 10.4331 9.94772 9.98535 10.5 9.98535C11.0523 9.98535 11.5 10.4331 11.5 10.9854Z" stroke="#001F7A" stroke-linecap="round"/>
</svg>
