<svg width="138" height="32" viewBox="0 0 138 32" fill="none" xmlns="http://www.w3.org/2000/svg">
    <path d="M45.05 22H49.7675C50.8325 22 51.64 21.705 52.19 21.115C52.74 20.525 53.015 19.75 53.015 18.79C53.015 18.245 52.88 17.75 52.61 17.305C52.345 16.86 51.9525 16.5275 51.4325 16.3075C51.7675 16.1075 52.03 15.825 52.22 15.46C52.415 15.09 52.5125 14.66 52.5125 14.17C52.5125 13.685 52.3975 13.215 52.1675 12.76C51.9425 12.305 51.595 11.9325 51.125 11.6425C50.66 11.3475 50.0625 11.2 49.3325 11.2H45.05V22ZM46.88 15.5125V12.8875H49.31C49.74 12.8875 50.075 13.0125 50.315 13.2625C50.555 13.5125 50.675 13.825 50.675 14.2C50.675 14.63 50.5425 14.9575 50.2775 15.1825C50.0175 15.4025 49.695 15.5125 49.31 15.5125H46.88ZM46.88 20.2975V17.2H49.595C50.1 17.2 50.4925 17.3475 50.7725 17.6425C51.0525 17.9375 51.1925 18.3025 51.1925 18.7375C51.1925 19.2175 51.035 19.5975 50.72 19.8775C50.41 20.1575 50.0175 20.2975 49.5425 20.2975H46.88ZM57.5504 22.2325C58.1354 22.2325 58.6479 22.1325 59.0879 21.9325C59.5329 21.7275 59.9029 21.45 60.1979 21.1V22H61.7954V13.9H59.9804V18.0625C59.9804 18.7175 59.8854 19.225 59.6954 19.585C59.5104 19.94 59.2729 20.1875 58.9829 20.3275C58.6929 20.4625 58.3929 20.53 58.0829 20.53C57.6529 20.53 57.3104 20.4375 57.0554 20.2525C56.8004 20.0625 56.6104 19.825 56.4854 19.54C56.3654 19.25 56.2854 18.95 56.2454 18.64C56.2104 18.33 56.1929 18.05 56.1929 17.8V13.9H54.3629V18.4225C54.3629 18.6125 54.3779 18.865 54.4079 19.18C54.4429 19.495 54.5154 19.8275 54.6254 20.1775C54.7354 20.5275 54.9054 20.86 55.1354 21.175C55.3654 21.485 55.6754 21.74 56.0654 21.94C56.4604 22.135 56.9554 22.2325 57.5504 22.2325ZM67.03 22.225C68.075 22.225 68.8925 21.9925 69.4825 21.5275C70.0775 21.0625 70.375 20.4225 70.375 19.6075C70.375 18.9775 70.175 18.4825 69.775 18.1225C69.38 17.7625 68.6975 17.4575 67.7275 17.2075C67.0975 17.0475 66.6225 16.9125 66.3025 16.8025C65.9875 16.6925 65.7775 16.5825 65.6725 16.4725C65.5675 16.3625 65.515 16.23 65.515 16.075C65.515 15.805 65.645 15.595 65.905 15.445C66.165 15.29 66.5075 15.2225 66.9325 15.2425C67.3725 15.2675 67.725 15.38 67.99 15.58C68.26 15.78 68.42 16.0525 68.47 16.3975L70.315 16.0675C70.215 15.3375 69.8575 14.7575 69.2425 14.3275C68.6275 13.8925 67.8475 13.675 66.9025 13.675C65.9375 13.675 65.165 13.9 64.585 14.35C64.005 14.8 63.715 15.405 63.715 16.165C63.715 16.77 63.9175 17.2475 64.3225 17.5975C64.7325 17.9475 65.445 18.255 66.46 18.52C67.07 18.68 67.52 18.815 67.81 18.925C68.105 19.03 68.2975 19.1375 68.3875 19.2475C68.4775 19.3575 68.5225 19.505 68.5225 19.69C68.5225 19.99 68.4025 20.2275 68.1625 20.4025C67.9225 20.5725 67.5875 20.6575 67.1575 20.6575C66.6625 20.6575 66.25 20.5425 65.92 20.3125C65.595 20.0825 65.3875 19.7675 65.2975 19.3675L63.4525 19.6525C63.5875 20.4675 63.9675 21.1 64.5925 21.55C65.2175 22 66.03 22.225 67.03 22.225ZM72.1678 12.67H73.9753V11.0125H72.1678V12.67ZM72.1678 22H73.9753V13.9H72.1678V22ZM76.2069 22H78.0369V17.8375C78.0369 17.1825 78.1294 16.6775 78.3144 16.3225C78.5044 15.9625 78.7444 15.715 79.0344 15.58C79.3294 15.44 79.6294 15.37 79.9344 15.37C80.3644 15.37 80.7069 15.465 80.9619 15.655C81.2169 15.84 81.4044 16.0775 81.5244 16.3675C81.6494 16.6525 81.7294 16.95 81.7644 17.26C81.8044 17.57 81.8244 17.85 81.8244 18.1V22H83.6544V17.4775C83.6544 17.2875 83.6369 17.035 83.6019 16.72C83.5719 16.405 83.5019 16.0725 83.3919 15.7225C83.2819 15.3725 83.1119 15.0425 82.8819 14.7325C82.6519 14.4175 82.3394 14.1625 81.9444 13.9675C81.5544 13.7675 81.0619 13.6675 80.4669 13.6675C79.8819 13.6675 79.3669 13.77 78.9219 13.975C78.4819 14.175 78.1144 14.45 77.8194 14.8V13.9H76.2069V22ZM89.1622 22.225C89.9422 22.225 90.6547 22.025 91.2997 21.625C91.9497 21.22 92.4297 20.65 92.7397 19.915L90.9547 19.375C90.5947 20.145 89.9622 20.53 89.0572 20.53C88.4422 20.53 87.9572 20.3525 87.6022 19.9975C87.2472 19.6375 87.0347 19.1225 86.9647 18.4525H92.8297C92.8997 17.4775 92.7922 16.6325 92.5072 15.9175C92.2222 15.2025 91.7847 14.65 91.1947 14.26C90.6097 13.87 89.8972 13.675 89.0572 13.675C88.2622 13.675 87.5622 13.855 86.9572 14.215C86.3522 14.57 85.8797 15.075 85.5397 15.73C85.1997 16.385 85.0297 17.155 85.0297 18.04C85.0297 18.86 85.2022 19.585 85.5472 20.215C85.8972 20.845 86.3822 21.3375 87.0022 21.6925C87.6222 22.0475 88.3422 22.225 89.1622 22.225ZM89.1322 15.2575C89.6922 15.2575 90.1222 15.405 90.4222 15.7C90.7272 15.99 90.9197 16.4525 90.9997 17.0875H87.0097C87.2247 15.8675 87.9322 15.2575 89.1322 15.2575ZM97.6306 22.225C98.6756 22.225 99.4931 21.9925 100.083 21.5275C100.678 21.0625 100.976 20.4225 100.976 19.6075C100.976 18.9775 100.776 18.4825 100.376 18.1225C99.9806 17.7625 99.2981 17.4575 98.3281 17.2075C97.6981 17.0475 97.2231 16.9125 96.9031 16.8025C96.5881 16.6925 96.3781 16.5825 96.2731 16.4725C96.1681 16.3625 96.1156 16.23 96.1156 16.075C96.1156 15.805 96.2456 15.595 96.5056 15.445C96.7656 15.29 97.1081 15.2225 97.5331 15.2425C97.9731 15.2675 98.3256 15.38 98.5906 15.58C98.8606 15.78 99.0206 16.0525 99.0706 16.3975L100.916 16.0675C100.816 15.3375 100.458 14.7575 99.8431 14.3275C99.2281 13.8925 98.4481 13.675 97.5031 13.675C96.5381 13.675 95.7656 13.9 95.1856 14.35C94.6056 14.8 94.3156 15.405 94.3156 16.165C94.3156 16.77 94.5181 17.2475 94.9231 17.5975C95.3331 17.9475 96.0456 18.255 97.0606 18.52C97.6706 18.68 98.1206 18.815 98.4106 18.925C98.7056 19.03 98.8981 19.1375 98.9881 19.2475C99.0781 19.3575 99.1231 19.505 99.1231 19.69C99.1231 19.99 99.0031 20.2275 98.7631 20.4025C98.5231 20.5725 98.1881 20.6575 97.7581 20.6575C97.2631 20.6575 96.8506 20.5425 96.5206 20.3125C96.1956 20.0825 95.9881 19.7675 95.8981 19.3675L94.0531 19.6525C94.1881 20.4675 94.5681 21.1 95.1931 21.55C95.8181 22 96.6306 22.225 97.6306 22.225ZM107.186 22.225C108.426 22.225 109.461 21.915 110.291 21.295C111.126 20.67 111.711 19.83 112.046 18.775L110.223 18.2725C110.013 18.9725 109.656 19.5225 109.151 19.9225C108.646 20.3225 107.991 20.5225 107.186 20.5225C106.101 20.5225 105.283 20.165 104.733 19.45C104.188 18.73 103.916 17.78 103.916 16.6C103.921 15.42 104.196 14.4725 104.741 13.7575C105.286 13.0375 106.101 12.6775 107.186 12.6775C107.991 12.6775 108.646 12.8775 109.151 13.2775C109.656 13.6775 110.013 14.2275 110.223 14.9275L112.046 14.425C111.711 13.365 111.126 12.525 110.291 11.905C109.461 11.285 108.426 10.975 107.186 10.975C106.111 10.975 105.186 11.2125 104.411 11.6875C103.641 12.1575 103.048 12.815 102.633 13.66C102.223 14.5 102.018 15.48 102.018 16.6C102.018 17.715 102.223 18.695 102.633 19.54C103.048 20.385 103.641 21.045 104.411 21.52C105.186 21.99 106.111 22.225 107.186 22.225ZM113.678 22H115.508V17.8375C115.508 17.1825 115.6 16.6775 115.785 16.3225C115.975 15.9625 116.215 15.715 116.505 15.58C116.8 15.44 117.1 15.37 117.405 15.37C117.835 15.37 118.178 15.465 118.433 15.655C118.688 15.84 118.875 16.0775 118.995 16.3675C119.12 16.6525 119.2 16.95 119.235 17.26C119.275 17.57 119.295 17.85 119.295 18.1V22H121.125V17.4775C121.125 17.2875 121.108 17.035 121.073 16.72C121.043 16.405 120.973 16.0725 120.863 15.7225C120.753 15.3725 120.583 15.0425 120.353 14.7325C120.123 14.4175 119.81 14.1625 119.415 13.9675C119.025 13.7675 118.533 13.6675 117.938 13.6675C117.353 13.6675 116.838 13.77 116.393 13.975C115.953 14.175 115.585 14.45 115.29 14.8V11.2H113.678V22ZM125.347 22.225C125.992 22.225 126.54 22.12 126.99 21.91C127.445 21.695 127.845 21.3625 128.19 20.9125V22H129.772V17.0275C129.772 16.6775 129.757 16.355 129.727 16.06C129.697 15.76 129.61 15.4675 129.465 15.1825C129.2 14.6475 128.792 14.2625 128.242 14.0275C127.697 13.7925 127.065 13.675 126.345 13.675C125.395 13.675 124.637 13.8825 124.072 14.2975C123.507 14.7125 123.125 15.2625 122.925 15.9475L124.575 16.465C124.71 16.05 124.947 15.7575 125.287 15.5875C125.627 15.4175 125.98 15.3325 126.345 15.3325C126.895 15.3325 127.3 15.445 127.56 15.67C127.82 15.89 127.967 16.2325 128.002 16.6975C127.292 16.8025 126.632 16.905 126.022 17.005C125.417 17.1 124.902 17.2175 124.477 17.3575C123.837 17.5775 123.37 17.89 123.075 18.295C122.78 18.695 122.632 19.19 122.632 19.78C122.632 20.225 122.735 20.6325 122.94 21.0025C123.15 21.3725 123.457 21.67 123.862 21.895C124.267 22.115 124.762 22.225 125.347 22.225ZM125.707 20.785C125.282 20.785 124.957 20.6875 124.732 20.4925C124.512 20.2975 124.402 20.0525 124.402 19.7575C124.402 19.4925 124.487 19.2775 124.657 19.1125C124.832 18.9475 125.075 18.8075 125.385 18.6925C125.67 18.5975 126.012 18.515 126.412 18.445C126.812 18.37 127.335 18.2825 127.98 18.1825C127.975 18.3725 127.962 18.585 127.942 18.82C127.922 19.05 127.875 19.2575 127.8 19.4425C127.74 19.6275 127.622 19.825 127.447 20.035C127.277 20.245 127.047 20.4225 126.757 20.5675C126.467 20.7125 126.117 20.785 125.707 20.785ZM136.472 22V20.485C135.967 20.56 135.517 20.58 135.122 20.545C134.727 20.51 134.44 20.3425 134.26 20.0425C134.165 19.8875 134.112 19.6875 134.102 19.4425C134.097 19.1925 134.095 18.9075 134.095 18.5875V15.3175H136.472V13.9H134.095V11.65H132.295V13.9H130.825V15.3175H132.295V18.6925C132.295 19.1575 132.3 19.5725 132.31 19.9375C132.32 20.2975 132.417 20.6525 132.602 21.0025C132.812 21.3875 133.12 21.67 133.525 21.85C133.93 22.025 134.387 22.1175 134.897 22.1275C135.412 22.1425 135.937 22.1 136.472 22Z"
          fill="#062274"/>
    <path d="M0 3.13937C0 1.40555 1.40554 0 3.13937 0H12.8952C18.1445 0 22.4 4.25547 22.4 9.50486C22.4 14.7542 18.1445 19.0097 12.8951 19.0097H0V3.13937Z"
          fill="#99E7FF"/>
    <path d="M0 27.1174C0 19.3152 6.32495 12.9902 14.1272 12.9902H18.4951C23.7445 12.9902 28 17.2457 28 22.4951C28 27.7445 23.7445 32 18.4951 32H0V27.1174Z"
          fill="#2490FF"/>
    <path fill-rule="evenodd" clip-rule="evenodd"
          d="M21.5288 13.4847C20.0229 16.7463 16.7231 19.0097 12.8948 19.0097H2.55664C5.1121 15.3695 9.34175 12.9902 14.1271 12.9902H18.4951C19.5559 12.9902 20.5761 13.164 21.5288 13.4847Z"
          fill="#2700E5"/>
</svg>
